<svg width="20" height="20" viewBox="0 0 20 20" fill="none" xmlns="http://www.w3.org/2000/svg">
<path d="M10 8C11.1046 8 12 8.89543 12 10C12 11.1046 11.1046 12 10 12C8.89543 12 8 11.1046 8 10C8 8.89543 8.89543 8 10 8Z" fill="#5A5A5A"/>
<path fill-rule="evenodd" clip-rule="evenodd" d="M10.75 2.03516C14.5696 2.39031 17.6087 5.4304 17.9639 9.25H20V10.75H17.9639C17.6087 14.5696 14.5696 17.6087 10.75 17.9639V20H9.25V17.9639C5.43043 17.6087 2.39133 14.5696 2.03613 10.75H0V9.25H2.03613C2.39133 5.4304 5.43039 2.39031 9.25 2.03516V0H10.75V2.03516ZM10.75 6H9.25V3.54395C6.25961 3.88757 3.88757 6.25961 3.54395 9.25H6V10.75H3.54395C3.88757 13.7404 6.25966 16.1114 9.25 16.4551V14H10.75V16.4551C13.7403 16.1114 16.1124 13.7404 16.4561 10.75H14V9.25H16.4561C16.1124 6.25961 13.7404 3.88757 10.75 3.54395V6Z" fill="#5A5A5A"/>
</svg>
