<svg width="18" height="18" viewBox="0 0 18 18" fill="none" xmlns="http://www.w3.org/2000/svg">
<path d="M12.7861 5.5L8.68266 9.60348C8.48739 9.79874 8.17081 9.79874 7.97555 9.60348L5.63965 7.26758L6.7002 6.20703L8.3291 7.83594L11.7256 4.43945L12.7861 5.5Z" fill="#5A5A5A"/>
<path fill-rule="evenodd" clip-rule="evenodd" d="M18 13C18 13.5523 17.5523 14 17 14H9L3.75194 17.0614C3.41861 17.2558 3 17.0154 3 16.6295V14H1C0.447715 14 0 13.5523 0 13V1C0 0.447716 0.447715 0 1 0H17C17.5523 0 18 0.447715 18 1V13ZM1.5 12.5H4C4.27614 12.5 4.5 12.7239 4.5 13V14.8877L8.36126 12.6361C8.51416 12.547 8.68799 12.5 8.86499 12.5H16.5V1.5H1.5V12.5Z" fill="#5A5A5A"/>
</svg>
